# xmcd
#
# Track frame offsets: 
#        150
#        13485
#        26105
#        44408
#        60845
#        75618
#        92065
#        108325
#        126890
#        136993
#        156865
#        169733
#
# Disc length: 2488 seconds
#
# Revision: 9
# Processed by: cddbd v1.5.2PL0 Copyright (c) Steve Scherf et al.
# Submitted via: ExactAudioCopy v1.3
#
DISCID=9909b60c
DTITLE=George Strait - Honkytonkville
DYEAR=2003
DGENRE=Country
TTITLE0=She Used To Say That To Me
TTITLE1=Honkytonkville
TTITLE2=Look Who's Back From Town
TTITLE3=Cowboys Like Us
TTITLE4=Tell Me Something Bad About Tulsa
TTITLE5=As Far As It Goes
TTITLE6=I Found Jesus On The Jailhouse Floor
TTITLE7=Desperately
TTITLE8=Honk If You Honky Tonk
TTITLE9=Heaven Is Missing An Angel
TTITLE10=Four Down And Twelve Across
TTITLE11=My Infinite Love
EXTD=YEAR: 2003
EXTT0=
EXTT1=
EXTT2=
EXTT3=
EXTT4=
EXTT5=
EXTT6=
EXTT7=
EXTT8=
EXTT9=
EXTT10=
EXTT11=
PLAYORDER=
